<svg style="display:none">
<!-- CLOCK -->
<symbol id="clock" xmlns="http://www.w3.org/2000/svg" xmlns:xlink="http://www.w3.org/1999/xlink" version="1.1" id="Capa_1" x="0px" y="0px" viewBox="0 0 41.301 41.301" style="enable-background:new 0 0 41.301 41.301;" xml:space="preserve" width="512px" height="512px">
<path d="M20.642,0c5.698,0,10.857,2.317,14.602,6.047c3.73,3.746,6.047,8.905,6.047,14.603  c0,5.698-2.317,10.857-6.047,14.603c-3.746,3.73-8.904,6.047-14.602,6.047S9.786,38.983,6.056,35.253  C2.31,31.507,0.008,26.349,0.008,20.65c0-5.698,2.301-10.857,6.047-14.603C9.786,2.317,14.944,0,20.642,0L20.642,0z M31.166,19.523  c0.619,0,1.111,0.508,1.111,1.127c0,0.619-0.492,1.127-1.111,1.127H20.674h-0.032c-0.413,0-0.778-0.238-0.968-0.571l-0.016-0.016  l0,0l-0.016-0.032l0,0v-0.016l0,0l-0.016-0.032l0,0l-0.016-0.032l0,0v-0.016l0,0l-0.016-0.032l0,0l-0.016-0.016l0,0v-0.032l0,0  l-0.016-0.032l0,0v-0.016l0,0l-0.016-0.032l0,0v-0.032l0,0v-0.016v-0.016l-0.016-0.016l0,0v-0.032l0,0v-0.032l0,0V20.73l0,0v-0.016  l0,0v-0.032l0,0V20.65l0,0V7.206c0-0.619,0.492-1.111,1.111-1.111c0.619,0,1.127,0.492,1.127,1.111v12.317H31.166z M33.657,7.635  c-3.333-3.333-7.936-5.381-13.015-5.381S10.96,4.301,7.627,7.635C4.31,10.968,2.246,15.571,2.246,20.65  c0,5.079,2.063,9.682,5.381,13.016c3.333,3.333,7.936,5.381,13.015,5.381s9.682-2.048,13.015-5.381  c3.333-3.333,5.397-7.936,5.397-13.016C39.054,15.571,36.991,10.968,33.657,7.635L33.657,7.635z" fill="#FFFFFF"/>
</symbol>
<!-- PLAYCEHOLDER -->
<symbol id="placeholder" xmlns="http://www.w3.org/2000/svg" xmlns:xlink="http://www.w3.org/1999/xlink" version="1.1" id="Capa_1" x="0px" y="0px" viewBox="0 0 512 512" style="enable-background:new 0 0 512 512;" xml:space="preserve" width="512px" height="512px">
		<path d="M256,0C156.748,0,76,80.748,76,180c0,33.534,9.289,66.26,26.869,94.652l142.885,230.257    c2.737,4.411,7.559,7.091,12.745,7.091c0.04,0,0.079,0,0.119,0c5.231-0.041,10.063-2.804,12.75-7.292L410.611,272.22    C427.221,244.428,436,212.539,436,180C436,80.748,355.252,0,256,0z M384.866,256.818L258.272,468.186l-129.905-209.34    C113.734,235.214,105.8,207.95,105.8,180c0-82.71,67.49-150.2,150.2-150.2S406.1,97.29,406.1,180    C406.1,207.121,398.689,233.688,384.866,256.818z" fill="#FFFFFF"/>
		<path d="M256,90c-49.626,0-90,40.374-90,90c0,49.309,39.717,90,90,90c50.903,0,90-41.233,90-90C346,130.374,305.626,90,256,90z     M256,240.2c-33.257,0-60.2-27.033-60.2-60.2c0-33.084,27.116-60.2,60.2-60.2s60.1,27.116,60.1,60.2    C316.1,212.683,289.784,240.2,256,240.2z" fill="#FFFFFF"/>
</symbol>

</svg>