<?xml version="1.0" encoding="utf-8"?>
<!-- Generator: Adobe Illustrator 23.0.0, SVG Export Plug-In . SVG Version: 6.00 Build 0)  -->
<svg version="1.1" id="Capa_1" xmlns="http://www.w3.org/2000/svg" xmlns:xlink="http://www.w3.org/1999/xlink" x="0px" y="0px"
	 viewBox="0 0 448 448" style="enable-background:new 0 0 448 448;" xml:space="preserve">
<style type="text/css">
	.st0{fill:#E65A00;}
	.st1{fill:#002D5F;}
</style>
<path class="st0" d="M344,145c-20.3,0-40.2,6-57.1,17.1c-0.9-3.9-1.9-7.8-2.9-11.7c-2.3,4.8-4.9,9.5-7.8,13.8
	c1.7,8.2,3.1,16.4,4.5,24.7c2.2,12.4,4,25,4.7,37.6c1.4,23.8-1.5,49.2-16.8,68.5c-6.2,7.8-14,15.1-22.5,20.9c0.2,3,0.3,6.1,0.4,9.1
	c5.7-3.2,11.1-6.9,16.1-11.2c18,22.6,44.6,36.7,73.4,38.9V401c0,4.4,3.6,8,8,8c4.4,0,8-3.6,8-8v-48.3c53.6-4.1,96-49,96-103.7
	C448,191.7,401.3,145,344,145z M352,336.6v-12.3l29.7-29.7c3.1-3.1,3.1-8.2,0-11.3c-3.1-3.1-8.2-3.1-11.3,0L352,301.7V249
	c0-4.4-3.6-8-8-8c-4.4,0-8,3.6-8,8v36.7l-18.3-18.3c-3.1-3.1-8.2-3.1-11.3,0c-3.1,3.1-3.1,8.2,0,11.3l29.7,29.7v28.3
	c-24.5-2.2-47.1-14.7-62.1-34.4c13.8-16.7,22.2-38.1,22.2-61.4c0-20-2-41-5.7-61.7c15.3-11.8,34.2-18.2,53.6-18.2
	c48.5,0,88,39.5,88,88C432,294.8,396.8,332.6,352,336.6z"/>
<path class="st1" d="M263.7,314.9c3.1-2.6,6.2-5.3,8.7-8.5c0.3-0.4,0.6-0.8,0.9-1.2c0,0,0,0,0-0.1c0,0,0,0,0,0
	c0.3-0.4,0.6-0.8,0.9-1.2c0.2-0.3,0.5-0.6,0.8-0.8c13.8-16.6,22.1-38,22.1-61.2c0-20-2-41-5.7-61.7c0,0,0,0,0,0
	c-0.1-0.3-0.3-0.6-0.4-1c-1.7-6.1-3.2-11.9-3.6-17.9c-4.3-18.6-10-36.4-16.8-52.4C251.8,64.5,227,40,201,40
	c-26.1,0-50.8,24.4-69.7,68.6c-6.6,15.6-12.2,32.9-16.5,51L88.7,63.9c-1-3.5-4.1-5.9-7.7-5.9s-6.8,2.4-7.7,5.9l-72,264
	c-0.7,2.4-0.2,5,1.4,7c1.5,2,3.9,3.1,6.4,3.1h64v64c0,4.4,3.6,8,8,8c4.4,0,8-3.6,8-8v-64h64c2.5,0,4.8-1.2,6.4-3.1
	c1.2-1.6,1.8-3.6,1.6-5.6c9.9,4.6,20.7,7.5,32,8.4V402c0,4.4,3.6,8,8,8c4.4,0,8-3.6,8-8v-64.3c20.8-1.7,39.7-10.1,54.6-22.9
	C263.7,314.8,263.7,314.8,263.7,314.9z M89,322v-12.7l14.2-14.2c3.1-3.1,3.1-8.2,0-11.3c-3.1-3.1-8.2-3.1-11.3,0l-2.8,2.8V234
	c0-4.4-3.6-8-8-8c-4.4,0-8,3.6-8,8v36.7l-10.3-10.3c-3.1-3.1-8.2-3.1-11.3,0c-3.1,3.1-3.1,8.2,0,11.3L73,293.3V322H19.5L81,96.4
	l27.1,99.4c-2.1,15.5-3.2,31.1-3.2,46.1c0,30.4,14.2,57.6,36.3,75.2l1.3,4.9H89z M209,321.6v-12.3l29.7-29.7c3.1-3.1,3.1-8.2,0-11.3
	c-3.1-3.1-8.2-3.1-11.3,0L209,286.7v-33.4l21.7-21.7c3.1-3.1,3.1-8.2,0-11.3c-3.1-3.1-8.2-3.1-11.3,0L209,230.7V210c0-4.4-3.6-8-8-8
	c-4.4,0-8,3.6-8,8v60.7l-18.3-18.3c-3.1-3.1-8.2-3.1-11.3,0c-3.1,3.1-3.1,8.2,0,11.3l29.7,29.7v28.3c-40.4-4-72.1-38.2-72.1-79.7
	c0-42.5,9.4-90,25.2-127C162,77.5,182,56,201,56c18.9,0,39,21.6,55,59.2c15.8,37.1,25.2,84.4,25.2,126.7
	C281.1,283.4,249.4,317.6,209,321.6z"/>
</svg>
