<?xml version="1.0" encoding="utf-8"?>
<!-- Generator: Adobe Illustrator 23.0.0, SVG Export Plug-In . SVG Version: 6.00 Build 0)  -->
<svg version="1.1" id="Capa_1" xmlns="http://www.w3.org/2000/svg" xmlns:xlink="http://www.w3.org/1999/xlink" x="0px" y="0px"
	 viewBox="0 0 512 512" style="enable-background:new 0 0 512 512;" xml:space="preserve">
<style type="text/css">
	.st0{fill:#002D5F;}
	.st1{fill:#E65A00;}
</style>
<g>
	<g>
		<path class="st0" d="M502,298h-94c-5.5,0-10,4.5-10,10s4.5,10,10,10h94c5.5,0,10-4.5,10-10S507.5,298,502,298z"/>
	</g>
</g>
<g>
	<g>
		<path class="st0" d="M377.1,300.9c-1.9-1.9-4.4-2.9-7.1-2.9c-2.6,0-5.2,1.1-7.1,2.9c-1.9,1.9-2.9,4.4-2.9,7.1s1.1,5.2,2.9,7.1
			c1.9,1.9,4.4,2.9,7.1,2.9c2.6,0,5.2-1.1,7.1-2.9c1.9-1.9,2.9-4.4,2.9-7.1S378.9,302.8,377.1,300.9z"/>
	</g>
</g>
<g>
	<g>
		<path class="st0" d="M320,298h-78.8c-3.4,0-6.6,1.8-8.5,4.7l-122.4,194c-2.9,4.7-1.6,10.8,3.1,13.8c1.7,1,3.5,1.5,5.3,1.5
			c3.3,0,6.6-1.6,8.5-4.7L246.8,318H320c5.5,0,10-4.5,10-10C330,302.5,325.5,298,320,298z"/>
	</g>
</g>
<g>
	<g>
		<path class="st0" d="M153.5,256.3L17.5,120.4c-3.9-3.9-10.2-3.9-14.1,0c-3.9,3.9-3.9,10.2,0,14.1l130.3,130.3L1.6,473.5
			c-3,4.7-1.6,10.8,3.1,13.8c1.7,1.1,3.5,1.6,5.3,1.6c3.3,0,6.6-1.6,8.5-4.7l136.4-215.5C157.4,264.8,156.8,259.6,153.5,256.3z"/>
	</g>
</g>
<g>
	<g>
		<path class="st0" d="M119.6,75.4L47.2,3C43.3-1,37-1,33.1,3c-3.9,3.9-3.9,10.2,0,14.1l72.4,72.4c2,2,4.5,2.9,7.1,2.9
			s5.1-1,7.1-2.9C123.5,85.6,123.5,79.3,119.6,75.4z"/>
	</g>
</g>
<g>
	<g>
		<path class="st0" d="M143.8,99.5c-1.9-1.9-4.4-2.9-7.1-2.9s-5.2,1.1-7.1,2.9s-2.9,4.4-2.9,7.1c0,2.6,1.1,5.2,2.9,7.1
			c1.9,1.9,4.4,2.9,7.1,2.9s5.2-1.1,7.1-2.9c1.9-1.9,2.9-4.4,2.9-7.1C146.7,104,145.7,101.4,143.8,99.5z"/>
	</g>
</g>
<g>
	<g>
		<path class="st0" d="M502,246h-29.5c-5.5,0-10,4.5-10,10c0,5.5,4.5,10,10,10H502c5.5,0,10-4.5,10-10C512,250.5,507.5,246,502,246z
			"/>
	</g>
</g>
<g>
	<g>
		<path class="st0" d="M431.9,244.3h-23.5c-5.5,0-10,4.5-10,10c0,5.5,4.5,10,10,10h23.5c5.5,0,10-4.5,10-10
			C441.9,248.7,437.5,244.3,431.9,244.3z"/>
	</g>
</g>
<g>
	<g>
		<path class="st1" d="M502,194h-91.5l19.5-25c0,0,0-0.1,0.1-0.1c14.9-18.4,23.1-41.5,23.1-65.2C453.2,46.5,406.6,0,349.5,0
			c-57.2,0-103.7,46.5-103.7,103.7c0,23.7,8.2,46.8,23.1,65.2c0.1,0.2,0.3,0.4,0.4,0.6l19.1,24.5h-50.1l-68.8-68.8
			c-3.9-3.9-10.2-3.9-14.1,0c-3.9,3.9-3.9,10.2,0,14.1l71.7,71.7c1.9,1.9,4.4,2.9,7.1,2.9H300c1.2,0,2.4-0.2,3.5-0.6L329,246h-4
			c-5.5,0-10,4.5-10,10c0,5.5,4.5,10,10,10h36.7c5.5,0,10-4.5,10-10c0-3.1-1.4-5.8-3.6-7.6l26.8-34.4H502c5.5,0,10-4.5,10-10
			S507.5,194,502,194z M349.5,239.7l-63.8-81.8c-0.2-0.3-0.5-0.7-0.7-1c-12.3-14.9-19.1-33.9-19.1-53.3c0-46.2,37.5-83.7,83.7-83.7
			s83.7,37.5,83.7,83.7c0,19.2-6.7,38-18.8,52.8c-0.1,0.1-0.2,0.3-0.3,0.4L349.5,239.7z"/>
	</g>
</g>
<g>
	<g>
		<path class="st0" d="M274.1,244.3h-32.4c-5.5,0-10,4.5-10,10c0,5.5,4.5,10,10,10h32.4c5.5,0,10-4.5,10-10
			C284.1,248.7,279.6,244.3,274.1,244.3z"/>
	</g>
</g>
<g>
	<g>
		<path class="st0" d="M41.9,71.1L17.1,46.4c-3.9-3.9-10.2-3.9-14.1,0C-1,50.3-1,56.6,2.9,60.5l24.8,24.8c2,2,4.5,2.9,7.1,2.9
			s5.1-1,7.1-2.9C45.8,81.4,45.8,75.1,41.9,71.1z"/>
	</g>
</g>
<g>
	<g>
		<path class="st0" d="M95,124.3L70.3,99.5c-3.9-3.9-10.2-3.9-14.1,0c-3.9,3.9-3.9,10.2,0,14.1l24.8,24.8c2,2,4.5,2.9,7.1,2.9
			s5.1-1,7.1-2.9C98.9,134.6,98.9,128.2,95,124.3z"/>
	</g>
</g>
<g>
	<g>
		<path class="st0" d="M150,175.8L125.2,151c-3.9-3.9-10.2-3.9-14.1,0c-3.9,3.9-3.9,10.2,0,14.1l24.8,24.8c2,2,4.5,2.9,7.1,2.9
			s5.1-1,7.1-2.9C153.9,186,153.9,179.7,150,175.8z"/>
	</g>
</g>
<g>
	<g>
		<path class="st0" d="M200.5,226.3l-22.1-22.1c-3.9-3.9-10.2-3.9-14.1,0c-3.9,3.9-3.9,10.2,0,14.1l22.1,22.1c2,2,4.5,2.9,7.1,2.9
			s5.1-1,7.1-2.9C204.4,236.5,204.4,230.2,200.5,226.3z"/>
	</g>
</g>
<g>
	<g>
		<path class="st0" d="M83.6,460.5c-4.7-2.9-10.8-1.5-13.8,3.1l-20.9,33.1c-2.9,4.7-1.6,10.8,3.1,13.8c1.7,1,3.5,1.5,5.3,1.5
			c3.3,0,6.6-1.6,8.5-4.7l20.9-33.1C89.6,469.6,88.2,463.4,83.6,460.5z"/>
	</g>
</g>
<g>
	<g>
		<path class="st0" d="M129.6,387.6c-4.7-2.9-10.8-1.6-13.8,3.1l-21.2,33.6c-2.9,4.7-1.6,10.8,3.1,13.8c1.7,1,3.5,1.5,5.3,1.5
			c3.3,0,6.6-1.6,8.5-4.7l21.2-33.6C135.6,396.7,134.2,390.5,129.6,387.6z"/>
	</g>
</g>
<g>
	<g>
		<path class="st0" d="M168.8,325.3c-4.7-2.9-10.8-1.5-13.8,3.1l-14.8,23.5c-2.9,4.7-1.6,10.8,3.1,13.8c1.7,1,3.5,1.5,5.3,1.5
			c3.3,0,6.6-1.6,8.5-4.7l14.8-23.5C174.9,334.5,173.5,328.3,168.8,325.3z"/>
	</g>
</g>
<g>
	<g>
		<path class="st0" d="M204.3,269.2c-4.7-3-10.8-1.5-13.8,3.1l-14.5,23c-2.9,4.7-1.6,10.8,3.1,13.8c1.7,1,3.5,1.5,5.3,1.5
			c3.3,0,6.6-1.6,8.5-4.7l14.5-23C210.3,278.3,208.9,272.1,204.3,269.2z"/>
	</g>
</g>
<g>
	<g>
		<path class="st1" d="M349.5,54.2c-28.1,0-51,22.9-51,51s22.9,51,51,51s51-22.9,51-51S377.6,54.2,349.5,54.2z M349.5,136.2
			c-17.1,0-31-13.9-31-31s13.9-31,31-31c17.1,0,31,13.9,31,31C380.5,122.3,366.6,136.2,349.5,136.2z"/>
	</g>
</g>
</svg>
